<?xml version="1.0" encoding="UTF-8" standalone="no"?>
<!-- Created with Inkscape (http://www.inkscape.org/) -->

<svg
   width="95.252068mm"
   height="95.252663mm"
   viewBox="0 0 95.252074 95.252664"
   version="1.1"
   id="svg5"
   xmlns="http://www.w3.org/2000/svg"
   xmlns:svg="http://www.w3.org/2000/svg">
  <defs
     id="defs2" />
  <g
     id="layer1">
    <path
       id="use1676"
       style="display:inline;fill:#ffffff;fill-opacity:1;stroke-width:0.0470919;stroke-opacity:0.7"
       d="m 47.49426,0 v 2.116667 h 0.264583 V 0 Z m -4.714442,0.247013 -0.263033,0.02791 0.221176,2.104781 0.263033,-0.02739 z m 9.693466,0 -0.221176,2.105298 0.263033,0.02739 0.221176,-2.104781 z m -14.619264,0.766362 -0.258897,0.05478 0.440282,2.070158 0.258382,-0.05478 z m 19.545062,0 -0.439766,2.070158 0.258381,0.05529 0.440283,-2.070675 z M 33.035193,2.289783 32.783529,2.371953 33.437754,4.38475 33.688901,4.3031 Z m 29.182717,5.16e-4 -0.654225,2.013314 0.251664,0.08165 0.654224,-2.013314 z M 28.376047,4.063317 28.134199,4.171321 28.99513,6.104536 29.236975,5.997049 Z m 38.501009,5.29e-4 -0.860928,1.933733 0.241845,0.107487 0.86093,-1.933733 z M 23.927739,6.314355 23.698812,6.446647 24.757145,8.27961 24.986072,8.147318 Z m 47.397108,5.29e-4 -1.058333,1.832963 0.229444,0.132292 1.058333,-1.832963 z m -51.585483,2.702677 -0.213941,0.155547 1.244369,1.712557 0.21394,-0.155546 z m 55.773858,10e-4 -1.243851,1.71204 0.21394,0.155546 1.243851,-1.71204 z m -59.656825,3.125391 -0.196371,0.17725 1.416451,1.573031 0.196371,-0.177251 z m 63.539792,10e-4 -1.416452,1.57303 0.196887,0.176734 1.416452,-1.573031 z m -67.07446,3.514514 -0.177251,0.19637 1.573031,1.416452 0.17725,-0.196888 z m 70.609127,5.29e-4 -1.57303,1.416451 0.17725,0.196371 1.573032,-1.415934 z M 9.1736,19.524876 l -0.155546,0.21394 1.712557,1.243852 0.155546,-0.21394 z m 76.905385,5.29e-4 -1.712555,1.244368 0.155546,0.213941 1.712555,-1.243852 z M 6.447152,23.69776 6.31486,23.927204 8.147823,24.985537 8.280115,24.756093 Z m 82.358282,0.001 -1.832964,1.058333 0.132291,0.229444 1.832965,-1.058334 z m -84.634112,4.43487 -0.107487,0.241329 1.933731,0.86093 0.107487,-0.241329 z m 86.909942,0.0011 -1.933731,0.860928 0.107487,0.241329 1.933731,-0.860928 z m -88.709316,4.647777 -0.08165,0.251666 2.012797,0.654223 0.08165,-0.251664 z m 90.508689,0.0011 -2.013313,0.654225 0.08165,0.251664 2.013315,-0.654225 z m -91.812485,4.81056 -0.05478,0.2589 2.070158,0.440282 0.05529,-0.2589 z m 93.115764,0.0011 -2.070158,0.440282 0.05478,0.2589 2.070675,-0.440285 z m -93.909514,4.920628 -0.02739,0.263033 2.104781,0.221176 0.0279,-0.263033 z m 94.703264,0.0011 -2.105297,0.221176 0.0279,0.263033 2.104782,-0.221176 z M 0,47.493226 v 0.264583 h 2.116666 v -0.264583 z m 93.135402,0.0011 v 0.264583 h 2.116666 V 47.494284 Z M 2.351794,52.251079 0.247013,52.472252 0.274403,52.735285 2.3797,52.514111 Z m 90.547964,0.0011 -0.02739,0.263033 2.104781,0.221175 0.02791,-0.263033 z m -89.816225,4.706172 -2.070675,0.439767 0.05529,0.2589 2.070158,-0.440285 z m 89.085004,0.0011 -0.0553,0.258898 2.070674,0.439767 0.05478,-0.258898 z m -87.865958,4.603854 -2.012797,0.653706 0.08165,0.251664 2.013314,-0.653706 z m 86.646393,0.0011 -0.08217,0.251667 2.013315,0.653706 0.08165,-0.251664 z m -84.951922,4.450893 -1.933732,0.86093 0.107487,0.241845 1.933732,-0.86093 z m 83.257451,0.0011 -0.107487,0.241845 1.933734,0.860928 0.107487,-0.241845 z m -81.107195,4.24987 -1.832963,1.058333 0.132292,0.228926 1.832963,-1.058334 z m 78.95694,0.0011 -0.132292,0.228928 1.832964,1.058334 0.132292,-0.228929 z m -76.374152,4.001307 -1.712557,1.244367 0.155546,0.213942 1.712558,-1.244369 z m 73.791363,0.0011 -0.155546,0.213943 1.712558,1.244367 0.15503,-0.21394 z m -70.804465,3.709853 -1.57303,1.41645 0.17725,0.196371 1.572514,-1.41645 z m 67.817052,0.0011 -0.176734,0.196369 1.57303,1.416452 0.176734,-0.196887 z m -64.4586,3.377055 -1.416451,1.57303 0.196887,0.17725 1.416451,-1.57303 z m 61.100148,0.0011 -0.196371,0.176734 1.415934,1.573033 0.196887,-0.176734 z m -57.406834,3.007569 -1.244368,1.712558 0.214457,0.155546 1.243852,-1.712558 z m 53.713518,5.3e-4 -0.213939,0.155545 1.243851,1.712558 0.214458,-0.155545 z m -49.726164,2.605526 -1.058333,1.832962 0.229443,0.132292 1.058333,-1.832962 z m 45.738811,5.29e-4 -0.229444,0.132292 1.058334,1.833481 0.229444,-0.132292 z m -41.500828,2.174545 -0.860928,1.933734 0.241845,0.107487 0.860931,-1.933734 z m 37.262327,5.29e-4 -0.241329,0.107487 0.860931,1.933731 0.241329,-0.107487 z m -32.820219,1.719792 -0.653709,2.012796 0.251667,0.08165 0.653706,-2.012797 z m 28.378114,0 -0.251664,0.08216 0.654222,2.0128 0.251664,-0.08165 z m -23.780462,1.245917 -0.439767,2.070675 0.2589,0.05478 0.439767,-2.070155 z m 19.182808,5.29e-4 -0.258898,0.05478 0.440283,2.070674 0.2589,-0.0553 z m -14.479736,0.758611 -0.221176,2.105298 0.263033,0.02739 0.221176,-2.104781 z m 9.777182,0 -0.263033,0.02791 0.221174,2.104781 0.263032,-0.02739 z m -5.020884,0.263033 v 2.116667 h 0.264583 v -2.116667 z" />
    <path
       id="rect2471"
       style="display:inline;fill:#ffffff;fill-opacity:1;stroke-width:0.0415621;stroke-opacity:0.7"
       d="m 47.228126,0 v 2.645833 h 0.79375 V 0 Z M 71.093853,6.182052 69.770936,8.473385 70.45875,8.87026 71.781667,6.578927 Z m -46.937704,5.29e-4 -0.687297,0.396875 1.322917,2.291333 0.687297,-0.396875 z m 64.515444,17.286284 -2.291334,1.322916 0.396875,0.687297 2.291334,-1.322917 z M 6.578927,23.469394 6.182052,24.15669 8.473385,25.479607 8.87026,24.79231 Z m 86.026277,23.758732 v 0.79375 h 2.645833 v -0.79375 z M 0,47.229156 v 0.79375 h 2.645833 v -0.79375 z m 86.777652,22.542291 -0.396875,0.687298 2.291332,1.322917 0.396875,-0.687298 z m -78.30375,5.29e-4 -2.291333,1.322917 0.396875,0.687295 2.291333,-1.322917 z m 61.985364,16.608288 -0.687295,0.396875 1.322917,2.291334 0.687294,-0.396875 z m -45.66698,5.29e-4 -1.322917,2.291332 0.687297,0.396875 1.322916,-2.291332 z m 22.436875,6.224427 v 2.645833 h 0.79375 V 92.60522 Z" />
  </g>
</svg>
